<svg xmlns="http://www.w3.org/2000/svg" xmlns:xlink="http://www.w3.org/1999/xlink" width="500" zoomAndPan="magnify" viewBox="0 0 375 374.999991" height="500" preserveAspectRatio="xMidYMid meet" version="1.0"><defs><g/><clipPath id="38e3fbf1f0"><rect x="0" width="254" y="0" height="193"/></clipPath><clipPath id="7a9292c929"><rect x="0" width="250" y="0" height="131"/></clipPath><clipPath id="4334648f38"><rect x="0" width="148" y="0" height="83"/></clipPath><clipPath id="cf7ed41b0a"><rect x="0" width="99" y="0" height="83"/></clipPath></defs><g transform="matrix(1, 0, 0, 1, 60, 127)"><g clip-path="url(#38e3fbf1f0)"><g fill="#12a19d" fill-opacity="1"><g transform="translate(0.715743, 155.288565)"><g><path d="M 78.0625 -2.125 L 84.6875 -2.125 L 84.6875 0 L 46.25 0 L 46.25 -2.125 L 51.546875 -2.125 L 51.546875 -42.015625 C 51.546875 -46.960938 50.90625 -50.492188 49.625 -52.609375 C 48.351562 -54.734375 46.347656 -55.796875 43.609375 -55.796875 C 41.222656 -55.796875 38.570312 -55.132812 35.65625 -53.8125 L 35.65625 -2.125 L 40.953125 -2.125 L 40.953125 0 L 2.515625 0 L 2.515625 -2.125 L 9.140625 -2.125 L 9.140625 -50.5 L 1.59375 -56.984375 L 35.65625 -68.921875 L 35.65625 -55.65625 C 41.65625 -60.875 46.597656 -64.273438 50.484375 -65.859375 C 54.378906 -67.453125 57.875 -68.25 60.96875 -68.25 C 66.53125 -68.25 70.769531 -66.503906 73.6875 -63.015625 C 76.601562 -59.523438 78.0625 -54.425781 78.0625 -47.71875 Z M 78.0625 -2.125 "/></g></g></g><g fill="#12a19d" fill-opacity="1"><g transform="translate(85.141796, 155.288565)"><g><path d="M 41.21875 1.328125 C 36.53125 1.328125 31.957031 0.507812 27.5 -1.125 C 23.039062 -2.757812 19.109375 -5.125 15.703125 -8.21875 C 12.304688 -11.3125 9.613281 -15.019531 7.625 -19.34375 C 5.632812 -23.675781 4.640625 -28.40625 4.640625 -33.53125 C 4.640625 -38.125 5.519531 -42.519531 7.28125 -46.71875 C 9.050781 -50.914062 11.570312 -54.5625 14.84375 -57.65625 C 18.113281 -60.75 22 -63.175781 26.5 -64.9375 C 31.007812 -66.707031 35.867188 -67.59375 41.078125 -67.59375 C 46.472656 -67.59375 51.488281 -66.796875 56.125 -65.203125 C 60.757812 -63.609375 64.753906 -61.3125 68.109375 -58.3125 C 71.472656 -55.3125 74.082031 -51.6875 75.9375 -47.4375 C 77.789062 -43.195312 78.71875 -38.5625 78.71875 -33.53125 C 78.71875 -28.664062 77.921875 -24.113281 76.328125 -19.875 C 74.742188 -15.632812 72.382812 -11.921875 69.25 -8.734375 C 66.113281 -5.554688 62.160156 -3.082031 57.390625 -1.3125 C 52.617188 0.445312 47.226562 1.328125 41.21875 1.328125 Z M 56.0625 -3.453125 C 59.6875 -3.453125 61.5 -5.703125 61.5 -10.203125 C 61.5 -12.941406 60.28125 -17.203125 57.84375 -22.984375 C 55.414062 -28.773438 52.367188 -34.765625 48.703125 -40.953125 C 45.035156 -47.140625 41.28125 -52.328125 37.4375 -56.515625 C 33.59375 -60.710938 30.300781 -62.8125 27.5625 -62.8125 C 25.882812 -62.8125 24.582031 -62.238281 23.65625 -61.09375 C 22.726562 -59.945312 22.265625 -58.359375 22.265625 -56.328125 C 22.265625 -53.234375 23.5 -48.722656 25.96875 -42.796875 C 28.445312 -36.878906 31.539062 -30.894531 35.25 -24.84375 C 38.957031 -18.789062 42.710938 -13.710938 46.515625 -9.609375 C 50.316406 -5.503906 53.5 -3.453125 56.0625 -3.453125 Z M 56.0625 -3.453125 "/></g></g></g><g fill="#12a19d" fill-opacity="1"><g transform="translate(167.18219, 155.288565)"><g><path d="M 78.0625 -2.125 L 84.6875 -2.125 L 84.6875 0 L 46.25 0 L 46.25 -2.125 L 51.546875 -2.125 L 51.546875 -42.015625 C 51.546875 -46.960938 50.90625 -50.492188 49.625 -52.609375 C 48.351562 -54.734375 46.347656 -55.796875 43.609375 -55.796875 C 41.222656 -55.796875 38.570312 -55.132812 35.65625 -53.8125 L 35.65625 -2.125 L 40.953125 -2.125 L 40.953125 0 L 2.515625 0 L 2.515625 -2.125 L 9.140625 -2.125 L 9.140625 -50.5 L 1.59375 -56.984375 L 35.65625 -68.921875 L 35.65625 -55.65625 C 41.65625 -60.875 46.597656 -64.273438 50.484375 -65.859375 C 54.378906 -67.453125 57.875 -68.25 60.96875 -68.25 C 66.53125 -68.25 70.769531 -66.503906 73.6875 -63.015625 C 76.601562 -59.523438 78.0625 -54.425781 78.0625 -47.71875 Z M 78.0625 -2.125 "/></g></g></g></g></g><g transform="matrix(1, 0, 0, 1, 62, 38)"><g clip-path="url(#7a9292c929)"><g fill="#f5004f" fill-opacity="1"><g transform="translate(1.543815, 105.263379)"><g><path d="M 80.65625 -1.4375 L 85.15625 -1.4375 L 85.15625 0 L 59.078125 0 L 59.078125 -1.4375 L 62.671875 -1.4375 L 62.671875 -28.5 C 62.671875 -31.976562 62.3125 -34.40625 61.59375 -35.78125 C 60.875 -37.164062 59.585938 -37.859375 57.734375 -37.859375 C 55.816406 -37.859375 53.957031 -37.410156 52.15625 -36.515625 C 52.332031 -35.253906 52.421875 -33.875 52.421875 -32.375 L 52.421875 -1.4375 L 56.015625 -1.4375 L 56.015625 0 L 30.84375 0 L 30.84375 -1.4375 L 34.4375 -1.4375 L 34.4375 -28.5 C 34.4375 -31.976562 34.078125 -34.40625 33.359375 -35.78125 C 32.640625 -37.164062 31.351562 -37.859375 29.5 -37.859375 C 27.570312 -37.859375 25.800781 -37.46875 24.1875 -36.6875 L 24.1875 -1.4375 L 27.78125 -1.4375 L 27.78125 0 L 1.703125 0 L 1.703125 -1.4375 L 6.203125 -1.4375 L 6.203125 -34.265625 L 1.078125 -38.671875 L 24.1875 -46.765625 L 24.1875 -37.765625 C 27.90625 -40.765625 31.082031 -42.9375 33.71875 -44.28125 C 36.351562 -45.632812 38.875 -46.3125 41.28125 -46.3125 C 47.207031 -46.3125 50.769531 -43.34375 51.96875 -37.40625 C 55.8125 -40.519531 59.082031 -42.78125 61.78125 -44.1875 C 64.476562 -45.601562 67.054688 -46.3125 69.515625 -46.3125 C 76.941406 -46.3125 80.65625 -41.664062 80.65625 -32.375 Z M 80.65625 -1.4375 "/></g></g></g><g fill="#f5004f" fill-opacity="1"><g transform="translate(86.513679, 105.263379)"><g><path d="M 44.328125 -8.1875 L 44.421875 -8.09375 C 42.503906 -5.21875 40.015625 -3 36.953125 -1.4375 C 33.898438 0.125 30.332031 0.90625 26.25 0.90625 C 23.132812 0.90625 20.164062 0.363281 17.34375 -0.71875 C 14.53125 -1.800781 12.0625 -3.328125 9.9375 -5.296875 C 7.8125 -7.273438 6.144531 -9.6875 4.9375 -12.53125 C 3.738281 -15.382812 3.140625 -18.488281 3.140625 -21.84375 C 3.140625 -25.082031 3.679688 -28.171875 4.765625 -31.109375 C 5.847656 -34.046875 7.390625 -36.609375 9.390625 -38.796875 C 11.398438 -40.984375 13.859375 -42.707031 16.765625 -43.96875 C 19.671875 -45.226562 22.863281 -45.859375 26.34375 -45.859375 C 30.539062 -45.859375 33.972656 -44.765625 36.640625 -42.578125 C 39.304688 -40.390625 40.640625 -37.644531 40.640625 -34.34375 C 40.640625 -30.570312 39.21875 -27.113281 36.375 -23.96875 C 33.53125 -20.820312 29.4375 -18.257812 24.09375 -16.28125 C 26.675781 -13.757812 29.539062 -11.734375 32.6875 -10.203125 C 35.832031 -8.671875 38.84375 -7.90625 41.71875 -7.90625 C 42.675781 -7.90625 43.546875 -8 44.328125 -8.1875 Z M 17.984375 -42.71875 C 16.847656 -42.71875 15.945312 -42.234375 15.28125 -41.265625 C 14.625 -40.304688 14.296875 -39.019531 14.296875 -37.40625 C 14.296875 -33.875 15.148438 -30.273438 16.859375 -26.609375 C 18.566406 -22.953125 20.800781 -19.6875 23.5625 -16.8125 C 25.894531 -19.8125 27.0625 -23.617188 27.0625 -28.234375 C 27.0625 -30.929688 26.503906 -33.429688 25.390625 -35.734375 C 24.285156 -38.046875 23.070312 -39.785156 21.75 -40.953125 C 20.4375 -42.128906 19.179688 -42.71875 17.984375 -42.71875 Z M 17.984375 -42.71875 "/></g></g></g><g fill="#f5004f" fill-opacity="1"><g transform="translate(130.931764, 105.263379)"><g><path d="M 39.296875 -45.953125 C 39.890625 -45.953125 40.457031 -45.863281 41 -45.6875 L 41 -21.84375 L 40.921875 -21.84375 C 37.015625 -26.164062 33.726562 -29.34375 31.0625 -31.375 C 28.394531 -33.414062 26.101562 -34.285156 24.1875 -33.984375 L 24.1875 -1.4375 L 30.9375 -1.4375 L 30.9375 0 L 1.703125 0 L 1.703125 -1.4375 L 6.203125 -1.4375 L 6.203125 -34.078125 L 1.078125 -38.484375 L 24.1875 -46.21875 L 24.1875 -34.984375 C 26.707031 -38.273438 29.34375 -40.925781 32.09375 -42.9375 C 34.851562 -44.945312 37.253906 -45.953125 39.296875 -45.953125 Z M 39.296875 -45.953125 "/></g></g></g><g fill="#f5004f" fill-opacity="1"><g transform="translate(173.371705, 105.263379)"><g><path d="M 25.71875 0.90625 C 22.71875 0.90625 19.835938 0.378906 17.078125 -0.671875 C 14.328125 -1.722656 11.898438 -3.238281 9.796875 -5.21875 C 7.703125 -7.195312 6.066406 -9.59375 4.890625 -12.40625 C 3.722656 -15.226562 3.140625 -18.285156 3.140625 -21.578125 C 3.140625 -24.816406 3.722656 -27.921875 4.890625 -30.890625 C 6.066406 -33.859375 7.75 -36.460938 9.9375 -38.703125 C 12.125 -40.953125 14.757812 -42.707031 17.84375 -43.96875 C 20.9375 -45.226562 24.3125 -45.859375 27.96875 -45.859375 C 33.0625 -45.859375 38.21875 -44.898438 43.4375 -42.984375 L 39.921875 -17.890625 L 39.828125 -17.890625 C 35.691406 -25.679688 31.734375 -31.707031 27.953125 -35.96875 C 24.179688 -40.226562 20.945312 -42.359375 18.25 -42.359375 C 17.113281 -42.359375 16.226562 -41.9375 15.59375 -41.09375 C 14.96875 -40.25 14.65625 -39.050781 14.65625 -37.5 C 14.65625 -34.019531 15.445312 -30.492188 17.03125 -26.921875 C 18.625 -23.359375 20.738281 -20.125 23.375 -17.21875 C 26.019531 -14.3125 28.941406 -12.003906 32.140625 -10.296875 C 35.347656 -8.585938 38.484375 -7.734375 41.546875 -7.734375 C 42.617188 -7.734375 43.515625 -7.851562 44.234375 -8.09375 L 44.328125 -8 C 42.347656 -5.0625 39.753906 -2.84375 36.546875 -1.34375 C 33.347656 0.15625 29.738281 0.90625 25.71875 0.90625 Z M 25.71875 0.90625 "/></g></g></g><g fill="#f5004f" fill-opacity="1"><g transform="translate(219.138517, 105.263379)"><g><path d="M 15.203125 -48.28125 C 12.078125 -48.28125 9.628906 -49.191406 7.859375 -51.015625 C 6.097656 -52.847656 5.21875 -55.296875 5.21875 -58.359375 C 5.21875 -61.359375 6.097656 -63.769531 7.859375 -65.59375 C 9.628906 -67.425781 12.078125 -68.34375 15.203125 -68.34375 C 17.472656 -68.34375 19.414062 -67.816406 21.03125 -66.765625 C 22.65625 -65.710938 23.75 -64.390625 24.3125 -62.796875 C 24.882812 -61.210938 25.171875 -59.734375 25.171875 -58.359375 C 25.171875 -55.296875 24.285156 -52.847656 22.515625 -51.015625 C 20.753906 -49.191406 18.316406 -48.28125 15.203125 -48.28125 Z M 1.703125 0 L 1.703125 -1.4375 L 6.203125 -1.4375 L 6.203125 -34.265625 L 1.078125 -38.671875 L 24.1875 -46.765625 L 24.1875 -1.4375 L 28.6875 -1.4375 L 28.6875 0 Z M 1.703125 0 "/></g></g></g></g></g><g transform="matrix(1, 0, 0, 1, 64, 125)"><g clip-path="url(#4334648f38)"><g fill="#ffaf00" fill-opacity="1"><g transform="translate(1.108319, 66.441946)"><g><path d="M 25.234375 -29.046875 C 28.203125 -29.046875 30.632812 -27.859375 32.53125 -25.484375 C 34.425781 -23.117188 35.375 -19.804688 35.375 -15.546875 C 35.375 -13.117188 35.050781 -10.898438 34.40625 -8.890625 C 33.757812 -6.878906 32.835938 -5.171875 31.640625 -3.765625 C 30.453125 -2.359375 29.050781 -1.285156 27.4375 -0.546875 C 25.820312 0.191406 24.0625 0.5625 22.15625 0.5625 C 20.976562 0.5625 19.78125 0.375 18.5625 0 C 17.351562 -0.375 16.273438 -0.867188 15.328125 -1.484375 L 15.328125 13.328125 L 19.875 13.328125 L 19.875 14.234375 L 1.078125 14.234375 L 1.078125 13.328125 L 3.9375 13.328125 L 3.9375 -21.703125 L 0.6875 -24.5 L 15.328125 -29.625 L 15.328125 -23.984375 C 16.847656 -25.535156 18.476562 -26.765625 20.21875 -27.671875 C 21.96875 -28.585938 23.640625 -29.046875 25.234375 -29.046875 Z M 18.109375 -1.59375 C 19.628906 -1.59375 20.851562 -2.539062 21.78125 -4.4375 C 22.71875 -6.34375 23.1875 -8.96875 23.1875 -12.3125 C 23.1875 -16.144531 22.738281 -19.007812 21.84375 -20.90625 C 20.957031 -22.800781 19.582031 -23.75 17.71875 -23.75 C 17 -23.75 16.203125 -23.5625 15.328125 -23.1875 L 15.328125 -2.453125 C 16.117188 -1.878906 17.046875 -1.59375 18.109375 -1.59375 Z M 18.109375 -1.59375 "/></g></g></g><g fill="#ffaf00" fill-opacity="1"><g transform="translate(37.909082, 66.441946)"><g><path d="M 17.71875 0.5625 C 15.707031 0.5625 13.738281 0.210938 11.8125 -0.484375 C 9.894531 -1.179688 8.207031 -2.195312 6.75 -3.53125 C 5.289062 -4.863281 4.132812 -6.457031 3.28125 -8.3125 C 2.425781 -10.175781 2 -12.207031 2 -14.40625 C 2 -16.382812 2.375 -18.273438 3.125 -20.078125 C 3.882812 -21.878906 4.96875 -23.445312 6.375 -24.78125 C 7.78125 -26.113281 9.453125 -27.15625 11.390625 -27.90625 C 13.328125 -28.664062 15.414062 -29.046875 17.65625 -29.046875 C 19.976562 -29.046875 22.132812 -28.703125 24.125 -28.015625 C 26.113281 -27.335938 27.832031 -26.351562 29.28125 -25.0625 C 30.726562 -23.769531 31.847656 -22.210938 32.640625 -20.390625 C 33.441406 -18.566406 33.84375 -16.570312 33.84375 -14.40625 C 33.84375 -12.320312 33.5 -10.367188 32.8125 -8.546875 C 32.125 -6.722656 31.109375 -5.125 29.765625 -3.75 C 28.421875 -2.382812 26.722656 -1.320312 24.671875 -0.5625 C 22.617188 0.1875 20.300781 0.5625 17.71875 0.5625 Z M 24.09375 -1.484375 C 25.65625 -1.484375 26.4375 -2.453125 26.4375 -4.390625 C 26.4375 -5.566406 25.910156 -7.394531 24.859375 -9.875 C 23.816406 -12.363281 22.507812 -14.9375 20.9375 -17.59375 C 19.363281 -20.257812 17.75 -22.492188 16.09375 -24.296875 C 14.4375 -26.097656 13.019531 -27 11.84375 -27 C 11.125 -27 10.566406 -26.75 10.171875 -26.25 C 9.773438 -25.757812 9.578125 -25.082031 9.578125 -24.21875 C 9.578125 -22.882812 10.109375 -20.941406 11.171875 -18.390625 C 12.234375 -15.847656 13.5625 -13.273438 15.15625 -10.671875 C 16.75 -8.078125 18.363281 -5.894531 20 -4.125 C 21.632812 -2.363281 23 -1.484375 24.09375 -1.484375 Z M 24.09375 -1.484375 "/></g></g></g><g fill="#ffaf00" fill-opacity="1"><g transform="translate(73.171726, 66.441946)"><g><path d="M 32.46875 -0.90625 L 35.328125 -0.90625 L 35.328125 0 L 21.078125 0 L 21.078125 -4.390625 C 18.191406 -2.296875 16.046875 -0.9375 14.640625 -0.3125 C 13.234375 0.3125 11.976562 0.625 10.875 0.625 C 8.332031 0.625 6.472656 -0.148438 5.296875 -1.703125 C 4.117188 -3.265625 3.53125 -5.734375 3.53125 -9.109375 L 3.53125 -21.359375 L 0.28125 -24.15625 L 14.921875 -29.28125 L 14.921875 -11.390625 C 14.921875 -8.890625 15.128906 -7.15625 15.546875 -6.1875 C 15.960938 -5.21875 16.835938 -4.734375 18.171875 -4.734375 C 19.046875 -4.734375 20.015625 -4.921875 21.078125 -5.296875 L 21.078125 -21.640625 L 17.828125 -24.4375 L 32.46875 -29.5625 Z M 32.46875 -0.90625 "/></g></g></g><g fill="#ffaf00" fill-opacity="1"><g transform="translate(108.947085, 66.441946)"><g><path d="M 24.890625 -29.109375 C 25.273438 -29.109375 25.640625 -29.050781 25.984375 -28.9375 L 25.984375 -13.84375 L 25.921875 -13.84375 C 23.453125 -16.570312 21.367188 -18.582031 19.671875 -19.875 C 17.984375 -21.164062 16.535156 -21.71875 15.328125 -21.53125 L 15.328125 -0.90625 L 19.59375 -0.90625 L 19.59375 0 L 1.078125 0 L 1.078125 -0.90625 L 3.9375 -0.90625 L 3.9375 -21.59375 L 0.6875 -24.375 L 15.328125 -29.28125 L 15.328125 -22.15625 C 16.921875 -24.25 18.585938 -25.929688 20.328125 -27.203125 C 22.078125 -28.472656 23.597656 -29.109375 24.890625 -29.109375 Z M 24.890625 -29.109375 "/></g></g></g><g fill="#ffaf00" fill-opacity="1"><g transform="translate(135.841785, 66.441946)"><g/></g></g></g></g><g transform="matrix(1, 0, 0, 1, 213, 125)"><g clip-path="url(#cf7ed41b0a)"><g fill="#7b01fe" fill-opacity="1"><g transform="translate(1.279861, 65.588673)"><g><path d="M 25.15625 -5.296875 L 25.21875 -5.234375 C 24.113281 -3.492188 22.601562 -2.09375 20.6875 -1.03125 C 18.769531 0.03125 16.578125 0.5625 14.109375 0.5625 C 10.816406 0.5625 8.421875 -0.382812 6.921875 -2.28125 C 5.421875 -4.175781 4.671875 -7.019531 4.671875 -10.8125 L 4.671875 -26.984375 L 0.28125 -26.984375 L 0.28125 -27.03125 L 16.046875 -39.453125 L 16.046875 -27.890625 L 24.078125 -27.890625 L 24.078125 -26.984375 L 16.046875 -26.984375 L 16.046875 -13.71875 C 16.046875 -10.414062 16.484375 -8.082031 17.359375 -6.71875 C 18.234375 -5.351562 19.710938 -4.671875 21.796875 -4.671875 C 23.015625 -4.671875 24.132812 -4.878906 25.15625 -5.296875 Z M 25.15625 -5.296875 "/></g></g></g><g fill="#7b01fe" fill-opacity="1"><g transform="translate(24.784983, 65.588673)"><g><path d="M 17.703125 0.5625 C 15.691406 0.5625 13.726562 0.210938 11.8125 -0.484375 C 9.894531 -1.179688 8.203125 -2.191406 6.734375 -3.515625 C 5.273438 -4.847656 4.117188 -6.441406 3.265625 -8.296875 C 2.421875 -10.160156 2 -12.195312 2 -14.40625 C 2 -16.375 2.375 -18.257812 3.125 -20.0625 C 3.882812 -21.863281 4.96875 -23.425781 6.375 -24.75 C 7.78125 -26.082031 9.445312 -27.128906 11.375 -27.890625 C 13.3125 -28.648438 15.398438 -29.03125 17.640625 -29.03125 C 19.960938 -29.03125 22.117188 -28.6875 24.109375 -28 C 26.097656 -27.320312 27.8125 -26.335938 29.25 -25.046875 C 30.695312 -23.753906 31.816406 -22.195312 32.609375 -20.375 C 33.410156 -18.550781 33.8125 -16.5625 33.8125 -14.40625 C 33.8125 -12.3125 33.46875 -10.351562 32.78125 -8.53125 C 32.101562 -6.71875 31.085938 -5.125 29.734375 -3.75 C 28.390625 -2.382812 26.691406 -1.320312 24.640625 -0.5625 C 22.597656 0.1875 20.285156 0.5625 17.703125 0.5625 Z M 24.078125 -1.484375 C 25.628906 -1.484375 26.40625 -2.453125 26.40625 -4.390625 C 26.40625 -5.554688 25.882812 -7.382812 24.84375 -9.875 C 23.800781 -12.363281 22.492188 -14.9375 20.921875 -17.59375 C 19.347656 -20.25 17.734375 -22.476562 16.078125 -24.28125 C 14.429688 -26.082031 13.019531 -26.984375 11.84375 -26.984375 C 11.125 -26.984375 10.5625 -26.734375 10.15625 -26.234375 C 9.757812 -25.742188 9.5625 -25.0625 9.5625 -24.1875 C 9.5625 -22.863281 10.09375 -20.929688 11.15625 -18.390625 C 12.21875 -15.847656 13.546875 -13.273438 15.140625 -10.671875 C 16.734375 -8.078125 18.34375 -5.894531 19.96875 -4.125 C 21.601562 -2.363281 22.972656 -1.484375 24.078125 -1.484375 Z M 24.078125 -1.484375 "/></g></g></g><g fill="#7b01fe" fill-opacity="1"><g transform="translate(60.014304, 65.588673)"><g><path d="M 33.53125 -0.90625 L 36.375 -0.90625 L 36.375 0 L 19.859375 0 L 19.859375 -0.90625 L 22.140625 -0.90625 L 22.140625 -18.046875 C 22.140625 -20.171875 21.863281 -21.6875 21.3125 -22.59375 C 20.757812 -23.507812 19.898438 -23.96875 18.734375 -23.96875 C 17.703125 -23.96875 16.5625 -23.679688 15.3125 -23.109375 L 15.3125 -0.90625 L 17.59375 -0.90625 L 17.59375 0 L 1.078125 0 L 1.078125 -0.90625 L 3.921875 -0.90625 L 3.921875 -21.6875 L 0.6875 -24.46875 L 15.3125 -29.59375 L 15.3125 -23.90625 C 17.894531 -26.144531 20.019531 -27.601562 21.6875 -28.28125 C 23.351562 -28.96875 24.851562 -29.3125 26.1875 -29.3125 C 28.570312 -29.3125 30.390625 -28.5625 31.640625 -27.0625 C 32.898438 -25.5625 33.53125 -23.367188 33.53125 -20.484375 Z M 33.53125 -0.90625 "/></g></g></g></g></g></svg>