<svg xmlns="http://www.w3.org/2000/svg" xmlns:xlink="http://www.w3.org/1999/xlink" width="500" zoomAndPan="magnify" viewBox="0 0 375 322.499991" height="430" preserveAspectRatio="xMidYMid meet" version="1.0"><defs><g/><clipPath id="3cf633f693"><path d="M 0.289062 82 L 374 82 L 374 322 L 0.289062 322 Z M 0.289062 82 " clip-rule="nonzero"/></clipPath><clipPath id="7e68d1d0bc"><rect x="0" width="374" y="0" height="240"/></clipPath><clipPath id="a7d6de3f5b"><rect x="0" width="368" y="0" height="143"/></clipPath><clipPath id="b81b730430"><rect x="0" width="218" y="0" height="123"/></clipPath><clipPath id="f6147f9d1e"><rect x="0" width="145" y="0" height="122"/></clipPath></defs><g clip-path="url(#3cf633f693)"><g transform="matrix(1, 0, 0, 1, 0.000000000000000056, 82)"><g clip-path="url(#7e68d1d0bc)"><g fill="#12a19d" fill-opacity="1"><g transform="translate(0.286564, 228.642493)"><g><path d="M 115.265625 -3.125 L 125.046875 -3.125 L 125.046875 0 L 68.296875 0 L 68.296875 -3.125 L 76.125 -3.125 L 76.125 -62.03125 C 76.125 -69.34375 75.175781 -74.5625 73.28125 -77.6875 C 71.394531 -80.820312 68.429688 -82.390625 64.390625 -82.390625 C 60.867188 -82.390625 56.953125 -81.410156 52.640625 -79.453125 L 52.640625 -3.125 L 60.46875 -3.125 L 60.46875 0 L 3.71875 0 L 3.71875 -3.125 L 13.5 -3.125 L 13.5 -74.5625 L 2.34375 -84.15625 L 52.640625 -101.765625 L 52.640625 -82.1875 C 61.515625 -89.882812 68.820312 -94.90625 74.5625 -97.25 C 80.300781 -99.601562 85.453125 -100.78125 90.015625 -100.78125 C 98.242188 -100.78125 104.507812 -98.203125 108.8125 -93.046875 C 113.113281 -87.898438 115.265625 -80.367188 115.265625 -70.453125 Z M 115.265625 -3.125 "/></g></g></g><g fill="#12a19d" fill-opacity="1"><g transform="translate(124.952621, 228.642493)"><g><path d="M 60.859375 1.953125 C 53.941406 1.953125 47.1875 0.75 40.59375 -1.65625 C 34.007812 -4.070312 28.207031 -7.5625 23.1875 -12.125 C 18.164062 -16.695312 14.1875 -22.175781 11.25 -28.5625 C 8.3125 -34.957031 6.84375 -41.941406 6.84375 -49.515625 C 6.84375 -56.296875 8.144531 -62.785156 10.75 -68.984375 C 13.363281 -75.179688 17.082031 -80.5625 21.90625 -85.125 C 26.738281 -89.695312 32.484375 -93.285156 39.140625 -95.890625 C 45.796875 -98.503906 52.972656 -99.8125 60.671875 -99.8125 C 68.628906 -99.8125 76.03125 -98.632812 82.875 -96.28125 C 89.726562 -93.9375 95.632812 -90.546875 100.59375 -86.109375 C 105.550781 -81.671875 109.398438 -76.320312 112.140625 -70.0625 C 114.878906 -63.800781 116.25 -56.953125 116.25 -49.515625 C 116.25 -42.335938 115.070312 -35.617188 112.71875 -29.359375 C 110.375 -23.097656 106.882812 -17.617188 102.25 -12.921875 C 97.625 -8.222656 91.785156 -4.566406 84.734375 -1.953125 C 77.691406 0.648438 69.734375 1.953125 60.859375 1.953125 Z M 82.78125 -5.09375 C 88.132812 -5.09375 90.8125 -8.414062 90.8125 -15.0625 C 90.8125 -19.113281 89.015625 -25.410156 85.421875 -33.953125 C 81.835938 -42.492188 77.335938 -51.332031 71.921875 -60.46875 C 66.503906 -69.601562 60.957031 -77.269531 55.28125 -83.46875 C 49.601562 -89.664062 44.742188 -92.765625 40.703125 -92.765625 C 38.222656 -92.765625 36.296875 -91.914062 34.921875 -90.21875 C 33.554688 -88.519531 32.875 -86.171875 32.875 -83.171875 C 32.875 -78.609375 34.703125 -71.953125 38.359375 -63.203125 C 42.015625 -54.460938 46.582031 -45.625 52.0625 -36.6875 C 57.539062 -27.75 63.082031 -20.25 68.6875 -14.1875 C 74.300781 -8.125 79 -5.09375 82.78125 -5.09375 Z M 82.78125 -5.09375 "/></g></g></g><g fill="#12a19d" fill-opacity="1"><g transform="translate(246.095942, 228.642493)"><g><path d="M 115.265625 -3.125 L 125.046875 -3.125 L 125.046875 0 L 68.296875 0 L 68.296875 -3.125 L 76.125 -3.125 L 76.125 -62.03125 C 76.125 -69.34375 75.175781 -74.5625 73.28125 -77.6875 C 71.394531 -80.820312 68.429688 -82.390625 64.390625 -82.390625 C 60.867188 -82.390625 56.953125 -81.410156 52.640625 -79.453125 L 52.640625 -3.125 L 60.46875 -3.125 L 60.46875 0 L 3.71875 0 L 3.71875 -3.125 L 13.5 -3.125 L 13.5 -74.5625 L 2.34375 -84.15625 L 52.640625 -101.765625 L 52.640625 -82.1875 C 61.515625 -89.882812 68.820312 -94.90625 74.5625 -97.25 C 80.300781 -99.601562 85.453125 -100.78125 90.015625 -100.78125 C 98.242188 -100.78125 104.507812 -98.203125 108.8125 -93.046875 C 113.113281 -87.898438 115.265625 -80.367188 115.265625 -70.453125 Z M 115.265625 -3.125 "/></g></g></g></g></g></g><g transform="matrix(1, 0, 0, 1, 3, 0)"><g clip-path="url(#a7d6de3f5b)"><g fill="#f5004f" fill-opacity="1"><g transform="translate(1.462578, 105.353713)"><g><path d="M 119.125 -2.125 L 125.765625 -2.125 L 125.765625 0 L 87.25 0 L 87.25 -2.125 L 92.5625 -2.125 L 92.5625 -42.09375 C 92.5625 -47.226562 92.03125 -50.8125 90.96875 -52.84375 C 89.90625 -54.882812 88 -55.90625 85.25 -55.90625 C 82.414062 -55.90625 79.671875 -55.242188 77.015625 -53.921875 C 77.285156 -52.054688 77.421875 -50.019531 77.421875 -47.8125 L 77.421875 -2.125 L 82.734375 -2.125 L 82.734375 0 L 45.546875 0 L 45.546875 -2.125 L 50.859375 -2.125 L 50.859375 -42.09375 C 50.859375 -47.226562 50.328125 -50.8125 49.265625 -52.84375 C 48.203125 -54.882812 46.300781 -55.90625 43.5625 -55.90625 C 40.726562 -55.90625 38.113281 -55.332031 35.71875 -54.1875 L 35.71875 -2.125 L 41.03125 -2.125 L 41.03125 0 L 2.515625 0 L 2.515625 -2.125 L 9.15625 -2.125 L 9.15625 -50.59375 L 1.59375 -57.109375 L 35.71875 -69.046875 L 35.71875 -55.78125 C 41.207031 -60.207031 45.898438 -63.414062 49.796875 -65.40625 C 53.691406 -67.394531 57.410156 -68.390625 60.953125 -68.390625 C 69.710938 -68.390625 74.976562 -64.007812 76.75 -55.25 C 82.414062 -59.851562 87.238281 -63.191406 91.21875 -65.265625 C 95.207031 -67.347656 99.019531 -68.390625 102.65625 -68.390625 C 113.632812 -68.390625 119.125 -61.53125 119.125 -47.8125 Z M 119.125 -2.125 "/></g></g></g><g fill="#f5004f" fill-opacity="1"><g transform="translate(126.931622, 105.353713)"><g><path d="M 65.46875 -12.078125 L 65.609375 -11.953125 C 62.773438 -7.703125 59.097656 -4.425781 54.578125 -2.125 C 50.066406 0.175781 44.800781 1.328125 38.78125 1.328125 C 34.175781 1.328125 29.789062 0.53125 25.625 -1.0625 C 21.46875 -2.65625 17.816406 -4.910156 14.671875 -7.828125 C 11.523438 -10.753906 9.066406 -14.316406 7.296875 -18.515625 C 5.523438 -22.722656 4.640625 -27.304688 4.640625 -32.265625 C 4.640625 -37.046875 5.4375 -41.601562 7.03125 -45.9375 C 8.625 -50.28125 10.90625 -54.066406 13.875 -57.296875 C 16.84375 -60.535156 20.472656 -63.082031 24.765625 -64.9375 C 29.054688 -66.789062 33.769531 -67.71875 38.90625 -67.71875 C 45.101562 -67.71875 50.171875 -66.101562 54.109375 -62.875 C 58.054688 -59.644531 60.03125 -55.597656 60.03125 -50.734375 C 60.03125 -45.148438 57.925781 -40.035156 53.71875 -35.390625 C 49.507812 -30.742188 43.46875 -26.957031 35.59375 -24.03125 C 39.394531 -20.3125 43.617188 -17.320312 48.265625 -15.0625 C 52.921875 -12.8125 57.375 -11.6875 61.625 -11.6875 C 63.039062 -11.6875 64.320312 -11.816406 65.46875 -12.078125 Z M 26.5625 -63.078125 C 24.875 -63.078125 23.539062 -62.367188 22.5625 -60.953125 C 21.59375 -59.535156 21.109375 -57.632812 21.109375 -55.25 C 21.109375 -50.019531 22.367188 -44.703125 24.890625 -39.296875 C 27.421875 -33.898438 30.722656 -29.078125 34.796875 -24.828125 C 38.242188 -29.253906 39.96875 -34.878906 39.96875 -41.703125 C 39.96875 -45.679688 39.148438 -49.375 37.515625 -52.78125 C 35.878906 -56.195312 34.085938 -58.765625 32.140625 -60.484375 C 30.191406 -62.210938 28.332031 -63.078125 26.5625 -63.078125 Z M 26.5625 -63.078125 "/></g></g></g><g fill="#f5004f" fill-opacity="1"><g transform="translate(192.520697, 105.353713)"><g><path d="M 58.03125 -67.859375 C 58.914062 -67.859375 59.757812 -67.722656 60.5625 -67.453125 L 60.5625 -32.265625 L 60.421875 -32.265625 C 54.671875 -38.640625 49.820312 -43.332031 45.875 -46.34375 C 41.9375 -49.351562 38.550781 -50.640625 35.71875 -50.203125 L 35.71875 -2.125 L 45.6875 -2.125 L 45.6875 0 L 2.515625 0 L 2.515625 -2.125 L 9.15625 -2.125 L 9.15625 -50.328125 L 1.59375 -56.84375 L 35.71875 -68.25 L 35.71875 -51.65625 C 39.4375 -56.53125 43.332031 -60.445312 47.40625 -63.40625 C 51.476562 -66.375 55.019531 -67.859375 58.03125 -67.859375 Z M 58.03125 -67.859375 "/></g></g></g><g fill="#f5004f" fill-opacity="1"><g transform="translate(255.188785, 105.353713)"><g><path d="M 37.984375 1.328125 C 33.554688 1.328125 29.304688 0.554688 25.234375 -0.984375 C 21.160156 -2.535156 17.570312 -4.769531 14.46875 -7.6875 C 11.375 -10.613281 8.960938 -14.15625 7.234375 -18.3125 C 5.503906 -22.476562 4.640625 -27 4.640625 -31.875 C 4.640625 -36.65625 5.503906 -41.234375 7.234375 -45.609375 C 8.960938 -49.992188 11.441406 -53.847656 14.671875 -57.171875 C 17.898438 -60.492188 21.796875 -63.082031 26.359375 -64.9375 C 30.921875 -66.789062 35.898438 -67.71875 41.296875 -67.71875 C 48.828125 -67.71875 56.441406 -66.304688 64.140625 -63.484375 L 58.96875 -26.421875 L 58.828125 -26.421875 C 52.722656 -37.929688 46.878906 -46.828125 41.296875 -53.109375 C 35.722656 -59.398438 30.941406 -62.546875 26.953125 -62.546875 C 25.273438 -62.546875 23.96875 -61.925781 23.03125 -60.6875 C 22.101562 -59.445312 21.640625 -57.675781 21.640625 -55.375 C 21.640625 -50.238281 22.8125 -45.035156 25.15625 -39.765625 C 27.507812 -34.503906 30.632812 -29.722656 34.53125 -25.421875 C 38.425781 -21.128906 42.738281 -17.722656 47.46875 -15.203125 C 52.207031 -12.679688 56.835938 -11.421875 61.359375 -11.421875 C 62.953125 -11.421875 64.28125 -11.597656 65.34375 -11.953125 L 65.46875 -11.8125 C 62.550781 -7.476562 58.722656 -4.203125 53.984375 -1.984375 C 49.242188 0.222656 43.910156 1.328125 37.984375 1.328125 Z M 37.984375 1.328125 "/></g></g></g><g fill="#f5004f" fill-opacity="1"><g transform="translate(322.76943, 105.353713)"><g><path d="M 22.4375 -71.3125 C 17.832031 -71.3125 14.222656 -72.660156 11.609375 -75.359375 C 9.003906 -78.054688 7.703125 -81.664062 7.703125 -86.1875 C 7.703125 -90.613281 9.003906 -94.175781 11.609375 -96.875 C 14.222656 -99.570312 17.832031 -100.921875 22.4375 -100.921875 C 25.800781 -100.921875 28.675781 -100.144531 31.0625 -98.59375 C 33.457031 -97.050781 35.078125 -95.101562 35.921875 -92.75 C 36.765625 -90.40625 37.1875 -88.21875 37.1875 -86.1875 C 37.1875 -81.664062 35.878906 -78.054688 33.265625 -75.359375 C 30.648438 -72.660156 27.039062 -71.3125 22.4375 -71.3125 Z M 2.515625 0 L 2.515625 -2.125 L 9.15625 -2.125 L 9.15625 -50.59375 L 1.59375 -57.109375 L 35.71875 -69.046875 L 35.71875 -2.125 L 42.359375 -2.125 L 42.359375 0 Z M 2.515625 0 "/></g></g></g></g></g><g transform="matrix(1, 0, 0, 1, 6, 78)"><g clip-path="url(#b81b730430)"><g fill="#ffaf00" fill-opacity="1"><g transform="translate(0.772773, 98.495641)"><g><path d="M 37.265625 -42.90625 C 41.640625 -42.90625 45.226562 -41.148438 48.03125 -37.640625 C 50.832031 -34.140625 52.234375 -29.25 52.234375 -22.96875 C 52.234375 -19.375 51.753906 -16.09375 50.796875 -13.125 C 49.847656 -10.15625 48.488281 -7.628906 46.71875 -5.546875 C 44.957031 -3.472656 42.882812 -1.890625 40.5 -0.796875 C 38.125 0.296875 35.53125 0.84375 32.71875 0.84375 C 30.976562 0.84375 29.210938 0.5625 27.421875 0 C 25.628906 -0.5625 24.03125 -1.289062 22.625 -2.1875 L 22.625 19.6875 L 29.359375 19.6875 L 29.359375 21.03125 L 1.59375 21.03125 L 1.59375 19.6875 L 5.796875 19.6875 L 5.796875 -32.046875 L 1.015625 -36.171875 L 22.625 -43.75 L 22.625 -35.421875 C 24.875 -37.710938 27.285156 -39.53125 29.859375 -40.875 C 32.441406 -42.226562 34.910156 -42.90625 37.265625 -42.90625 Z M 26.75 -2.359375 C 28.988281 -2.359375 30.796875 -3.757812 32.171875 -6.5625 C 33.546875 -9.363281 34.234375 -13.234375 34.234375 -18.171875 C 34.234375 -23.835938 33.570312 -28.070312 32.25 -30.875 C 30.9375 -33.675781 28.90625 -35.078125 26.15625 -35.078125 C 25.09375 -35.078125 23.914062 -34.796875 22.625 -34.234375 L 22.625 -3.625 C 23.800781 -2.78125 25.175781 -2.359375 26.75 -2.359375 Z M 26.75 -2.359375 "/></g></g></g><g fill="#ffaf00" fill-opacity="1"><g transform="translate(55.113882, 98.495641)"><g><path d="M 26.15625 0.84375 C 23.1875 0.84375 20.285156 0.328125 17.453125 -0.703125 C 14.617188 -1.742188 12.125 -3.242188 9.96875 -5.203125 C 7.8125 -7.171875 6.097656 -9.53125 4.828125 -12.28125 C 3.566406 -15.03125 2.9375 -18.03125 2.9375 -21.28125 C 2.9375 -24.195312 3.5 -26.988281 4.625 -29.65625 C 5.75 -32.320312 7.347656 -34.632812 9.421875 -36.59375 C 11.492188 -38.550781 13.957031 -40.09375 16.8125 -41.21875 C 19.675781 -42.34375 22.765625 -42.90625 26.078125 -42.90625 C 29.492188 -42.90625 32.675781 -42.398438 35.625 -41.390625 C 38.570312 -40.378906 41.109375 -38.921875 43.234375 -37.015625 C 45.367188 -35.109375 47.023438 -32.804688 48.203125 -30.109375 C 49.378906 -27.421875 49.96875 -24.476562 49.96875 -21.28125 C 49.96875 -18.195312 49.460938 -15.304688 48.453125 -12.609375 C 47.441406 -9.921875 45.941406 -7.566406 43.953125 -5.546875 C 41.960938 -3.535156 39.453125 -1.96875 36.421875 -0.84375 C 33.398438 0.28125 29.976562 0.84375 26.15625 0.84375 Z M 35.578125 -2.1875 C 37.878906 -2.1875 39.03125 -3.617188 39.03125 -6.484375 C 39.03125 -8.210938 38.257812 -10.914062 36.71875 -14.59375 C 35.175781 -18.269531 33.238281 -22.070312 30.90625 -26 C 28.582031 -29.925781 26.203125 -33.21875 23.765625 -35.875 C 21.328125 -38.539062 19.238281 -39.875 17.5 -39.875 C 16.4375 -39.875 15.609375 -39.507812 15.015625 -38.78125 C 14.429688 -38.050781 14.140625 -37.039062 14.140625 -35.75 C 14.140625 -33.789062 14.921875 -30.929688 16.484375 -27.171875 C 18.054688 -23.410156 20.019531 -19.609375 22.375 -15.765625 C 24.726562 -11.929688 27.109375 -8.707031 29.515625 -6.09375 C 31.929688 -3.488281 33.953125 -2.1875 35.578125 -2.1875 Z M 35.578125 -2.1875 "/></g></g></g><g fill="#ffaf00" fill-opacity="1"><g transform="translate(107.183758, 98.495641)"><g><path d="M 47.953125 -1.34375 L 52.15625 -1.34375 L 52.15625 0 L 31.125 0 L 31.125 -6.484375 C 26.863281 -3.390625 23.691406 -1.378906 21.609375 -0.453125 C 19.535156 0.460938 17.6875 0.921875 16.0625 0.921875 C 12.3125 0.921875 9.566406 -0.222656 7.828125 -2.515625 C 6.085938 -4.816406 5.21875 -8.460938 5.21875 -13.453125 L 5.21875 -31.546875 L 0.421875 -35.671875 L 22.046875 -43.234375 L 22.046875 -16.828125 C 22.046875 -13.117188 22.351562 -10.550781 22.96875 -9.125 C 23.582031 -7.695312 24.867188 -6.984375 26.828125 -6.984375 C 28.117188 -6.984375 29.550781 -7.265625 31.125 -7.828125 L 31.125 -31.96875 L 26.328125 -36.09375 L 47.953125 -43.65625 Z M 47.953125 -1.34375 "/></g></g></g><g fill="#ffaf00" fill-opacity="1"><g transform="translate(160.010724, 98.495641)"><g><path d="M 36.765625 -42.984375 C 37.328125 -42.984375 37.859375 -42.898438 38.359375 -42.734375 L 38.359375 -20.4375 L 38.28125 -20.4375 C 34.632812 -24.476562 31.5625 -27.453125 29.0625 -29.359375 C 26.570312 -31.265625 24.425781 -32.078125 22.625 -31.796875 L 22.625 -1.34375 L 28.9375 -1.34375 L 28.9375 0 L 1.59375 0 L 1.59375 -1.34375 L 5.796875 -1.34375 L 5.796875 -31.890625 L 1.015625 -36 L 22.625 -43.234375 L 22.625 -32.71875 C 24.976562 -35.800781 27.445312 -38.28125 30.03125 -40.15625 C 32.613281 -42.039062 34.859375 -42.984375 36.765625 -42.984375 Z M 36.765625 -42.984375 "/></g></g></g><g fill="#ffaf00" fill-opacity="1"><g transform="translate(199.724243, 98.495641)"><g/></g></g></g></g><g transform="matrix(1, 0, 0, 1, 226, 78)"><g clip-path="url(#f6147f9d1e)"><g fill="#7b01fe" fill-opacity="1"><g transform="translate(1.043935, 97.235664)"><g><path d="M 37.15625 -7.8125 L 37.234375 -7.734375 C 35.609375 -5.148438 33.378906 -3.070312 30.546875 -1.5 C 27.722656 0.0625 24.488281 0.84375 20.84375 0.84375 C 15.96875 0.84375 12.421875 -0.554688 10.203125 -3.359375 C 7.992188 -6.160156 6.890625 -10.363281 6.890625 -15.96875 L 6.890625 -39.84375 L 0.421875 -39.84375 L 0.421875 -39.921875 L 23.703125 -58.25 L 23.703125 -41.1875 L 35.546875 -41.1875 L 35.546875 -39.84375 L 23.703125 -39.84375 L 23.703125 -20.25 C 23.703125 -15.375 24.34375 -11.925781 25.625 -9.90625 C 26.914062 -7.894531 29.101562 -6.890625 32.1875 -6.890625 C 33.976562 -6.890625 35.632812 -7.195312 37.15625 -7.8125 Z M 37.15625 -7.8125 "/></g></g></g><g fill="#7b01fe" fill-opacity="1"><g transform="translate(35.752306, 97.235664)"><g><path d="M 26.140625 0.84375 C 23.171875 0.84375 20.269531 0.328125 17.4375 -0.703125 C 14.613281 -1.742188 12.117188 -3.242188 9.953125 -5.203125 C 7.796875 -7.171875 6.085938 -9.523438 4.828125 -12.265625 C 3.566406 -15.015625 2.9375 -18.015625 2.9375 -21.265625 C 2.9375 -24.179688 3.492188 -26.96875 4.609375 -29.625 C 5.734375 -32.289062 7.332031 -34.601562 9.40625 -36.5625 C 11.476562 -38.519531 13.941406 -40.054688 16.796875 -41.171875 C 19.660156 -42.296875 22.742188 -42.859375 26.046875 -42.859375 C 29.472656 -42.859375 32.65625 -42.351562 35.59375 -41.34375 C 38.53125 -40.34375 41.0625 -38.890625 43.1875 -36.984375 C 45.320312 -35.078125 46.976562 -32.773438 48.15625 -30.078125 C 49.332031 -27.390625 49.921875 -24.453125 49.921875 -21.265625 C 49.921875 -18.179688 49.414062 -15.296875 48.40625 -12.609375 C 47.394531 -9.921875 45.894531 -7.566406 43.90625 -5.546875 C 41.925781 -3.523438 39.421875 -1.953125 36.390625 -0.828125 C 33.367188 0.285156 29.953125 0.84375 26.140625 0.84375 Z M 35.546875 -2.1875 C 37.847656 -2.1875 39 -3.613281 39 -6.46875 C 39 -8.207031 38.226562 -10.910156 36.6875 -14.578125 C 35.144531 -18.253906 33.210938 -22.050781 30.890625 -25.96875 C 28.566406 -29.894531 26.1875 -33.1875 23.75 -35.84375 C 21.3125 -38.507812 19.222656 -39.84375 17.484375 -39.84375 C 16.421875 -39.84375 15.59375 -39.476562 15 -38.75 C 14.414062 -38.019531 14.125 -37.007812 14.125 -35.71875 C 14.125 -33.757812 14.90625 -30.898438 16.46875 -27.140625 C 18.039062 -23.390625 20.003906 -19.59375 22.359375 -15.75 C 24.710938 -11.914062 27.09375 -8.695312 29.5 -6.09375 C 31.90625 -3.488281 33.921875 -2.1875 35.546875 -2.1875 Z M 35.546875 -2.1875 "/></g></g></g><g fill="#7b01fe" fill-opacity="1"><g transform="translate(87.772982, 97.235664)"><g><path d="M 49.5 -1.34375 L 53.703125 -1.34375 L 53.703125 0 L 29.328125 0 L 29.328125 -1.34375 L 32.6875 -1.34375 L 32.6875 -26.640625 C 32.6875 -29.773438 32.28125 -32.015625 31.46875 -33.359375 C 30.65625 -34.710938 29.382812 -35.390625 27.65625 -35.390625 C 26.132812 -35.390625 24.453125 -34.96875 22.609375 -34.125 L 22.609375 -1.34375 L 25.96875 -1.34375 L 25.96875 0 L 1.59375 0 L 1.59375 -1.34375 L 5.796875 -1.34375 L 5.796875 -32.015625 L 1.015625 -36.140625 L 22.609375 -43.703125 L 22.609375 -35.296875 C 26.421875 -38.609375 29.554688 -40.765625 32.015625 -41.765625 C 34.484375 -42.773438 36.695312 -43.28125 38.65625 -43.28125 C 42.1875 -43.28125 44.875 -42.171875 46.71875 -39.953125 C 48.570312 -37.742188 49.5 -34.507812 49.5 -30.25 Z M 49.5 -1.34375 "/></g></g></g></g></g></svg>