<svg xmlns="http://www.w3.org/2000/svg" xmlns:xlink="http://www.w3.org/1999/xlink" width="500" zoomAndPan="magnify" viewBox="0 0 375 374.999991" height="500" preserveAspectRatio="xMidYMid meet" version="1.0"><defs><g/></defs><g fill="#130077" fill-opacity="1"><g transform="translate(63.584436, 276.533346)"><g><path d="M 76.296875 -2.078125 L 82.78125 -2.078125 L 82.78125 0 L 45.21875 0 L 45.21875 -2.078125 L 50.390625 -2.078125 L 50.390625 -41.0625 C 50.390625 -45.90625 49.765625 -49.363281 48.515625 -51.4375 C 47.265625 -53.507812 45.300781 -54.546875 42.625 -54.546875 C 40.289062 -54.546875 37.695312 -53.894531 34.84375 -52.59375 L 34.84375 -2.078125 L 40.03125 -2.078125 L 40.03125 0 L 2.46875 0 L 2.46875 -2.078125 L 8.9375 -2.078125 L 8.9375 -49.359375 L 1.546875 -55.703125 L 34.84375 -67.359375 L 34.84375 -54.40625 C 40.71875 -59.5 45.554688 -62.820312 49.359375 -64.375 C 53.160156 -65.9375 56.570312 -66.71875 59.59375 -66.71875 C 65.03125 -66.71875 69.171875 -65.007812 72.015625 -61.59375 C 74.867188 -58.1875 76.296875 -53.203125 76.296875 -46.640625 Z M 76.296875 -2.078125 "/></g></g></g><g fill="#130077" fill-opacity="1"><g transform="translate(146.100785, 276.533346)"><g><path d="M 40.296875 1.296875 C 35.710938 1.296875 31.238281 0.5 26.875 -1.09375 C 22.519531 -2.695312 18.675781 -5.007812 15.34375 -8.03125 C 12.019531 -11.050781 9.382812 -14.675781 7.4375 -18.90625 C 5.5 -23.144531 4.53125 -27.769531 4.53125 -32.78125 C 4.53125 -37.269531 5.394531 -41.5625 7.125 -45.65625 C 8.851562 -49.757812 11.3125 -53.320312 14.5 -56.34375 C 17.695312 -59.375 21.5 -61.75 25.90625 -63.46875 C 30.3125 -65.195312 35.0625 -66.0625 40.15625 -66.0625 C 45.425781 -66.0625 50.328125 -65.285156 54.859375 -63.734375 C 59.398438 -62.179688 63.3125 -59.9375 66.59375 -57 C 69.875 -54.0625 72.421875 -50.519531 74.234375 -46.375 C 76.046875 -42.226562 76.953125 -37.695312 76.953125 -32.78125 C 76.953125 -28.03125 76.171875 -23.582031 74.609375 -19.4375 C 73.054688 -15.289062 70.75 -11.660156 67.6875 -8.546875 C 64.625 -5.441406 60.757812 -3.023438 56.09375 -1.296875 C 51.425781 0.429688 46.160156 1.296875 40.296875 1.296875 Z M 54.796875 -3.375 C 58.335938 -3.375 60.109375 -5.570312 60.109375 -9.96875 C 60.109375 -12.644531 58.921875 -16.8125 56.546875 -22.46875 C 54.171875 -28.132812 51.191406 -33.988281 47.609375 -40.03125 C 44.023438 -46.070312 40.351562 -51.144531 36.59375 -55.25 C 32.84375 -59.351562 29.628906 -61.40625 26.953125 -61.40625 C 25.304688 -61.40625 24.03125 -60.84375 23.125 -59.71875 C 22.21875 -58.59375 21.765625 -57.039062 21.765625 -55.0625 C 21.765625 -52.03125 22.972656 -47.617188 25.390625 -41.828125 C 27.804688 -36.046875 30.828125 -30.195312 34.453125 -24.28125 C 38.085938 -18.375 41.757812 -13.410156 45.46875 -9.390625 C 49.1875 -5.378906 52.296875 -3.375 54.796875 -3.375 Z M 54.796875 -3.375 "/></g></g></g><g fill="#130077" fill-opacity="1"><g transform="translate(226.285445, 276.533346)"><g><path d="M 76.296875 -2.078125 L 82.78125 -2.078125 L 82.78125 0 L 45.21875 0 L 45.21875 -2.078125 L 50.390625 -2.078125 L 50.390625 -41.0625 C 50.390625 -45.90625 49.765625 -49.363281 48.515625 -51.4375 C 47.265625 -53.507812 45.300781 -54.546875 42.625 -54.546875 C 40.289062 -54.546875 37.695312 -53.894531 34.84375 -52.59375 L 34.84375 -2.078125 L 40.03125 -2.078125 L 40.03125 0 L 2.46875 0 L 2.46875 -2.078125 L 8.9375 -2.078125 L 8.9375 -49.359375 L 1.546875 -55.703125 L 34.84375 -67.359375 L 34.84375 -54.40625 C 40.71875 -59.5 45.554688 -62.820312 49.359375 -64.375 C 53.160156 -65.9375 56.570312 -66.71875 59.59375 -66.71875 C 65.03125 -66.71875 69.171875 -65.007812 72.015625 -61.59375 C 74.867188 -58.1875 76.296875 -53.203125 76.296875 -46.640625 Z M 76.296875 -2.078125 "/></g></g></g><g fill="#fd3a69" fill-opacity="1"><g transform="translate(66.182776, 142.40041)"><g><path d="M 78.9375 -1.40625 L 83.34375 -1.40625 L 83.34375 0 L 57.8125 0 L 57.8125 -1.40625 L 61.34375 -1.40625 L 61.34375 -27.890625 C 61.34375 -31.296875 60.988281 -33.671875 60.28125 -35.015625 C 59.570312 -36.367188 58.3125 -37.046875 56.5 -37.046875 C 54.625 -37.046875 52.804688 -36.609375 51.046875 -35.734375 C 51.210938 -34.492188 51.296875 -33.144531 51.296875 -31.6875 L 51.296875 -1.40625 L 54.828125 -1.40625 L 54.828125 0 L 30.1875 0 L 30.1875 -1.40625 L 33.703125 -1.40625 L 33.703125 -27.890625 C 33.703125 -31.296875 33.347656 -33.671875 32.640625 -35.015625 C 31.941406 -36.367188 30.679688 -37.046875 28.859375 -37.046875 C 26.984375 -37.046875 25.253906 -36.664062 23.671875 -35.90625 L 23.671875 -1.40625 L 27.1875 -1.40625 L 27.1875 0 L 1.671875 0 L 1.671875 -1.40625 L 6.078125 -1.40625 L 6.078125 -33.53125 L 1.0625 -37.84375 L 23.671875 -45.765625 L 23.671875 -36.953125 C 27.304688 -39.890625 30.414062 -42.015625 33 -43.328125 C 35.582031 -44.648438 38.046875 -45.3125 40.390625 -45.3125 C 46.203125 -45.3125 49.691406 -42.410156 50.859375 -36.609375 C 54.617188 -39.660156 57.816406 -41.875 60.453125 -43.25 C 63.097656 -44.625 65.625 -45.3125 68.03125 -45.3125 C 75.300781 -45.3125 78.9375 -40.769531 78.9375 -31.6875 Z M 78.9375 -1.40625 "/></g></g></g><g fill="#fd3a69" fill-opacity="1"><g transform="translate(149.339066, 142.40041)"><g><path d="M 43.390625 -8.015625 L 43.46875 -7.921875 C 41.59375 -5.109375 39.160156 -2.9375 36.171875 -1.40625 C 33.179688 0.113281 29.691406 0.875 25.703125 0.875 C 22.648438 0.875 19.742188 0.347656 16.984375 -0.703125 C 14.222656 -1.753906 11.800781 -3.25 9.71875 -5.1875 C 7.632812 -7.125 6.003906 -9.484375 4.828125 -12.265625 C 3.660156 -15.054688 3.078125 -18.097656 3.078125 -21.390625 C 3.078125 -24.554688 3.601562 -27.578125 4.65625 -30.453125 C 5.71875 -33.328125 7.226562 -35.832031 9.1875 -37.96875 C 11.15625 -40.113281 13.5625 -41.800781 16.40625 -43.03125 C 19.257812 -44.257812 22.382812 -44.875 25.78125 -44.875 C 29.882812 -44.875 33.242188 -43.800781 35.859375 -41.65625 C 38.472656 -39.519531 39.78125 -36.835938 39.78125 -33.609375 C 39.78125 -29.921875 38.382812 -26.535156 35.59375 -23.453125 C 32.8125 -20.367188 28.804688 -17.859375 23.578125 -15.921875 C 26.109375 -13.460938 28.910156 -11.484375 31.984375 -9.984375 C 35.066406 -8.492188 38.015625 -7.75 40.828125 -7.75 C 41.765625 -7.75 42.617188 -7.835938 43.390625 -8.015625 Z M 17.59375 -41.796875 C 16.476562 -41.796875 15.597656 -41.328125 14.953125 -40.390625 C 14.304688 -39.453125 13.984375 -38.191406 13.984375 -36.609375 C 13.984375 -33.148438 14.820312 -29.628906 16.5 -26.046875 C 18.175781 -22.472656 20.363281 -19.273438 23.0625 -16.453125 C 25.34375 -19.390625 26.484375 -23.113281 26.484375 -27.625 C 26.484375 -30.269531 25.941406 -32.722656 24.859375 -34.984375 C 23.773438 -37.242188 22.585938 -38.941406 21.296875 -40.078125 C 20.003906 -41.222656 18.769531 -41.796875 17.59375 -41.796875 Z M 17.59375 -41.796875 "/></g></g></g><g fill="#fd3a69" fill-opacity="1"><g transform="translate(192.809115, 142.40041)"><g><path d="M 38.453125 -44.96875 C 39.046875 -44.96875 39.601562 -44.878906 40.125 -44.703125 L 40.125 -21.390625 L 40.046875 -21.390625 C 36.222656 -25.609375 33.003906 -28.710938 30.390625 -30.703125 C 27.785156 -32.703125 25.546875 -33.554688 23.671875 -33.265625 L 23.671875 -1.40625 L 30.265625 -1.40625 L 30.265625 0 L 1.671875 0 L 1.671875 -1.40625 L 6.078125 -1.40625 L 6.078125 -33.359375 L 1.0625 -37.65625 L 23.671875 -45.234375 L 23.671875 -34.234375 C 26.140625 -37.460938 28.722656 -40.054688 31.421875 -42.015625 C 34.117188 -43.984375 36.460938 -44.96875 38.453125 -44.96875 Z M 38.453125 -44.96875 "/></g></g></g><g fill="#fd3a69" fill-opacity="1"><g transform="translate(234.343246, 142.40041)"><g><path d="M 25.171875 0.875 C 22.234375 0.875 19.414062 0.363281 16.71875 -0.65625 C 14.019531 -1.6875 11.644531 -3.171875 9.59375 -5.109375 C 7.539062 -7.046875 5.941406 -9.390625 4.796875 -12.140625 C 3.648438 -14.898438 3.078125 -17.894531 3.078125 -21.125 C 3.078125 -24.289062 3.648438 -27.320312 4.796875 -30.21875 C 5.941406 -33.125 7.582031 -35.675781 9.71875 -37.875 C 11.863281 -40.082031 14.445312 -41.800781 17.46875 -43.03125 C 20.488281 -44.257812 23.789062 -44.875 27.375 -44.875 C 32.351562 -44.875 37.394531 -43.9375 42.5 -42.0625 L 39.078125 -17.515625 L 38.984375 -17.515625 C 34.929688 -25.140625 31.054688 -31.035156 27.359375 -35.203125 C 23.671875 -39.367188 20.503906 -41.453125 17.859375 -41.453125 C 16.742188 -41.453125 15.878906 -41.039062 15.265625 -40.21875 C 14.648438 -39.394531 14.34375 -38.222656 14.34375 -36.703125 C 14.34375 -33.296875 15.117188 -29.847656 16.671875 -26.359375 C 18.234375 -22.867188 20.300781 -19.695312 22.875 -16.84375 C 25.457031 -14 28.316406 -11.738281 31.453125 -10.0625 C 34.597656 -8.394531 37.664062 -7.5625 40.65625 -7.5625 C 41.707031 -7.5625 42.585938 -7.679688 43.296875 -7.921875 L 43.390625 -7.828125 C 41.453125 -4.953125 38.910156 -2.78125 35.765625 -1.3125 C 32.628906 0.144531 29.097656 0.875 25.171875 0.875 Z M 25.171875 0.875 "/></g></g></g><g fill="#fd3a69" fill-opacity="1"><g transform="translate(279.133232, 142.40041)"><g><path d="M 14.875 -47.25 C 11.820312 -47.25 9.429688 -48.144531 7.703125 -49.9375 C 5.972656 -51.726562 5.109375 -54.117188 5.109375 -57.109375 C 5.109375 -60.046875 5.972656 -62.40625 7.703125 -64.1875 C 9.429688 -65.976562 11.820312 -66.875 14.875 -66.875 C 17.101562 -66.875 19.007812 -66.359375 20.59375 -65.328125 C 22.175781 -64.304688 23.242188 -63.019531 23.796875 -61.46875 C 24.359375 -59.914062 24.640625 -58.460938 24.640625 -57.109375 C 24.640625 -54.117188 23.773438 -51.726562 22.046875 -49.9375 C 20.316406 -48.144531 17.925781 -47.25 14.875 -47.25 Z M 1.671875 0 L 1.671875 -1.40625 L 6.078125 -1.40625 L 6.078125 -33.53125 L 1.0625 -37.84375 L 23.671875 -45.765625 L 23.671875 -1.40625 L 28.078125 -1.40625 L 28.078125 0 Z M 1.671875 0 "/></g></g></g><g fill="#ffaf00" fill-opacity="1"><g transform="translate(69.014649, 190.429439)"><g><path d="M 24.8125 -28.5625 C 27.71875 -28.5625 30.101562 -27.394531 31.96875 -25.0625 C 33.84375 -22.726562 34.78125 -19.46875 34.78125 -15.28125 C 34.78125 -12.894531 34.460938 -10.710938 33.828125 -8.734375 C 33.191406 -6.753906 32.285156 -5.070312 31.109375 -3.6875 C 29.929688 -2.3125 28.546875 -1.257812 26.953125 -0.53125 C 25.367188 0.195312 23.644531 0.5625 21.78125 0.5625 C 20.625 0.5625 19.445312 0.375 18.25 0 C 17.0625 -0.375 16 -0.859375 15.0625 -1.453125 L 15.0625 13.109375 L 19.546875 13.109375 L 19.546875 14 L 1.0625 14 L 1.0625 13.109375 L 3.859375 13.109375 L 3.859375 -21.34375 L 0.671875 -24.078125 L 15.0625 -29.125 L 15.0625 -23.578125 C 16.550781 -25.109375 18.15625 -26.320312 19.875 -27.21875 C 21.59375 -28.113281 23.238281 -28.5625 24.8125 -28.5625 Z M 17.8125 -1.5625 C 19.300781 -1.5625 20.503906 -2.492188 21.421875 -4.359375 C 22.335938 -6.234375 22.796875 -8.8125 22.796875 -12.09375 C 22.796875 -15.863281 22.351562 -18.679688 21.46875 -20.546875 C 20.59375 -22.421875 19.242188 -23.359375 17.421875 -23.359375 C 16.710938 -23.359375 15.925781 -23.171875 15.0625 -22.796875 L 15.0625 -2.40625 C 15.84375 -1.84375 16.757812 -1.5625 17.8125 -1.5625 Z M 17.8125 -1.5625 "/></g></g></g><g fill="#ffaf00" fill-opacity="1"><g transform="translate(105.18553, 190.429439)"><g><path d="M 17.421875 0.5625 C 15.441406 0.5625 13.507812 0.21875 11.625 -0.46875 C 9.738281 -1.164062 8.078125 -2.164062 6.640625 -3.46875 C 5.203125 -4.78125 4.0625 -6.347656 3.21875 -8.171875 C 2.375 -10.003906 1.953125 -12.003906 1.953125 -14.171875 C 1.953125 -16.109375 2.328125 -17.960938 3.078125 -19.734375 C 3.828125 -21.515625 4.890625 -23.054688 6.265625 -24.359375 C 7.648438 -25.660156 9.296875 -26.6875 11.203125 -27.4375 C 13.109375 -28.1875 15.160156 -28.5625 17.359375 -28.5625 C 19.640625 -28.5625 21.757812 -28.222656 23.71875 -27.546875 C 25.675781 -26.878906 27.363281 -25.910156 28.78125 -24.640625 C 30.195312 -23.367188 31.296875 -21.835938 32.078125 -20.046875 C 32.867188 -18.253906 33.265625 -16.296875 33.265625 -14.171875 C 33.265625 -12.117188 32.925781 -10.195312 32.25 -8.40625 C 31.582031 -6.613281 30.582031 -5.046875 29.25 -3.703125 C 27.925781 -2.359375 26.253906 -1.3125 24.234375 -0.5625 C 22.222656 0.1875 19.953125 0.5625 17.421875 0.5625 Z M 23.6875 -1.453125 C 25.21875 -1.453125 25.984375 -2.40625 25.984375 -4.3125 C 25.984375 -5.46875 25.46875 -7.269531 24.4375 -9.71875 C 23.414062 -12.164062 22.128906 -14.691406 20.578125 -17.296875 C 19.023438 -19.910156 17.4375 -22.101562 15.8125 -23.875 C 14.195312 -25.65625 12.804688 -26.546875 11.640625 -26.546875 C 10.929688 -26.546875 10.378906 -26.300781 9.984375 -25.8125 C 9.597656 -25.332031 9.40625 -24.660156 9.40625 -23.796875 C 9.40625 -22.492188 9.925781 -20.59375 10.96875 -18.09375 C 12.019531 -15.59375 13.328125 -13.0625 14.890625 -10.5 C 16.460938 -7.9375 18.050781 -5.785156 19.65625 -4.046875 C 21.257812 -2.316406 22.601562 -1.453125 23.6875 -1.453125 Z M 23.6875 -1.453125 "/></g></g></g><g fill="#ffaf00" fill-opacity="1"><g transform="translate(139.844624, 190.429439)"><g><path d="M 31.921875 -0.890625 L 34.71875 -0.890625 L 34.71875 0 L 20.71875 0 L 20.71875 -4.3125 C 17.882812 -2.257812 15.773438 -0.925781 14.390625 -0.3125 C 13.003906 0.300781 11.773438 0.609375 10.703125 0.609375 C 8.191406 0.609375 6.359375 -0.148438 5.203125 -1.671875 C 4.046875 -3.203125 3.46875 -5.628906 3.46875 -8.953125 L 3.46875 -21 L 0.28125 -23.75 L 14.671875 -28.78125 L 14.671875 -11.203125 C 14.671875 -8.734375 14.875 -7.019531 15.28125 -6.0625 C 15.695312 -5.113281 16.554688 -4.640625 17.859375 -4.640625 C 18.722656 -4.640625 19.675781 -4.828125 20.71875 -5.203125 L 20.71875 -21.28125 L 17.53125 -24.03125 L 31.921875 -29.0625 Z M 31.921875 -0.890625 "/></g></g></g><g fill="#ffaf00" fill-opacity="1"><g transform="translate(175.007646, 190.429439)"><g><path d="M 24.46875 -28.609375 C 24.84375 -28.609375 25.195312 -28.554688 25.53125 -28.453125 L 25.53125 -13.609375 L 25.484375 -13.609375 C 23.054688 -16.296875 21.007812 -18.273438 19.34375 -19.546875 C 17.6875 -20.816406 16.257812 -21.359375 15.0625 -21.171875 L 15.0625 -0.890625 L 19.265625 -0.890625 L 19.265625 0 L 1.0625 0 L 1.0625 -0.890625 L 3.859375 -0.890625 L 3.859375 -21.21875 L 0.671875 -23.96875 L 15.0625 -28.78125 L 15.0625 -21.78125 C 16.632812 -23.832031 18.273438 -25.484375 19.984375 -26.734375 C 21.703125 -27.984375 23.195312 -28.609375 24.46875 -28.609375 Z M 24.46875 -28.609375 "/></g></g></g><g fill="#ffaf00" fill-opacity="1"><g transform="translate(201.436519, 190.429439)"><g/></g></g><g fill="#ffaf00" fill-opacity="1"><g transform="translate(214.424053, 190.429439)"><g><path d="M 24.75 -5.203125 L 24.8125 -5.15625 C 23.726562 -3.4375 22.242188 -2.050781 20.359375 -1 C 18.472656 0.0390625 16.316406 0.5625 13.890625 0.5625 C 10.640625 0.5625 8.273438 -0.367188 6.796875 -2.234375 C 5.328125 -4.109375 4.59375 -6.910156 4.59375 -10.640625 L 4.59375 -26.546875 L 0.28125 -26.546875 L 0.28125 -26.59375 L 15.796875 -38.8125 L 15.796875 -27.4375 L 23.6875 -27.4375 L 23.6875 -26.546875 L 15.796875 -26.546875 L 15.796875 -13.5 C 15.796875 -10.25 16.222656 -7.953125 17.078125 -6.609375 C 17.941406 -5.265625 19.398438 -4.59375 21.453125 -4.59375 C 22.640625 -4.59375 23.738281 -4.796875 24.75 -5.203125 Z M 24.75 -5.203125 "/></g></g></g><g fill="#ffaf00" fill-opacity="1"><g transform="translate(237.548704, 190.429439)"><g><path d="M 17.421875 0.5625 C 15.441406 0.5625 13.507812 0.21875 11.625 -0.46875 C 9.738281 -1.164062 8.078125 -2.164062 6.640625 -3.46875 C 5.203125 -4.78125 4.0625 -6.347656 3.21875 -8.171875 C 2.375 -10.003906 1.953125 -12.003906 1.953125 -14.171875 C 1.953125 -16.109375 2.328125 -17.960938 3.078125 -19.734375 C 3.828125 -21.515625 4.890625 -23.054688 6.265625 -24.359375 C 7.648438 -25.660156 9.296875 -26.6875 11.203125 -27.4375 C 13.109375 -28.1875 15.160156 -28.5625 17.359375 -28.5625 C 19.640625 -28.5625 21.757812 -28.222656 23.71875 -27.546875 C 25.675781 -26.878906 27.363281 -25.910156 28.78125 -24.640625 C 30.195312 -23.367188 31.296875 -21.835938 32.078125 -20.046875 C 32.867188 -18.253906 33.265625 -16.296875 33.265625 -14.171875 C 33.265625 -12.117188 32.925781 -10.195312 32.25 -8.40625 C 31.582031 -6.613281 30.582031 -5.046875 29.25 -3.703125 C 27.925781 -2.359375 26.253906 -1.3125 24.234375 -0.5625 C 22.222656 0.1875 19.953125 0.5625 17.421875 0.5625 Z M 23.6875 -1.453125 C 25.21875 -1.453125 25.984375 -2.40625 25.984375 -4.3125 C 25.984375 -5.46875 25.46875 -7.269531 24.4375 -9.71875 C 23.414062 -12.164062 22.128906 -14.691406 20.578125 -17.296875 C 19.023438 -19.910156 17.4375 -22.101562 15.8125 -23.875 C 14.195312 -25.65625 12.804688 -26.546875 11.640625 -26.546875 C 10.929688 -26.546875 10.378906 -26.300781 9.984375 -25.8125 C 9.597656 -25.332031 9.40625 -24.660156 9.40625 -23.796875 C 9.40625 -22.492188 9.925781 -20.59375 10.96875 -18.09375 C 12.019531 -15.59375 13.328125 -13.0625 14.890625 -10.5 C 16.460938 -7.9375 18.050781 -5.785156 19.65625 -4.046875 C 21.257812 -2.316406 22.601562 -1.453125 23.6875 -1.453125 Z M 23.6875 -1.453125 "/></g></g></g><g fill="#ffaf00" fill-opacity="1"><g transform="translate(272.207797, 190.429439)"><g><path d="M 32.984375 -0.890625 L 35.78125 -0.890625 L 35.78125 0 L 19.546875 0 L 19.546875 -0.890625 L 21.78125 -0.890625 L 21.78125 -17.75 C 21.78125 -19.84375 21.507812 -21.335938 20.96875 -22.234375 C 20.425781 -23.128906 19.578125 -23.578125 18.421875 -23.578125 C 17.410156 -23.578125 16.289062 -23.296875 15.0625 -22.734375 L 15.0625 -0.890625 L 17.296875 -0.890625 L 17.296875 0 L 1.0625 0 L 1.0625 -0.890625 L 3.859375 -0.890625 L 3.859375 -21.34375 L 0.671875 -24.078125 L 15.0625 -29.125 L 15.0625 -23.515625 C 17.601562 -25.722656 19.691406 -27.160156 21.328125 -27.828125 C 22.972656 -28.503906 24.453125 -28.84375 25.765625 -28.84375 C 28.109375 -28.84375 29.894531 -28.101562 31.125 -26.625 C 32.363281 -25.15625 32.984375 -23 32.984375 -20.15625 Z M 32.984375 -0.890625 "/></g></g></g></svg>